<?xml version="1.0" encoding="UTF-8"?>
<svg id="Layer_1" xmlns="http://www.w3.org/2000/svg" version="1.1" viewBox="0 0 353 88.6">
  <!-- Generator: Adobe Illustrator 29.0.1, SVG Export Plug-In . SVG Version: 2.1.0 Build 192)  -->
  <defs>
    <style>
      .st0, .st1 {
        isolation: isolate;
      }

      .st1 {
        font-family: CircularStd-Book, 'Circular Std';
        font-size: 12px;
      }

      .st1, .st2 {
        fill: #203b6c;
      }

      .st3 {
        fill: #7990b0;
      }
    </style>
  </defs>
  <g id="Layer_11">
    <g>
      <g>
        <path class="st2" d="M66.8,0C59.3,0,52.4,3,47.4,7.9,42.4,3,35.5,0,28,0,12.5,0,0,12.7,0,28.3v32c0,15.6,12.6,28.3,28,28.3s28-12.7,28-28.3v-.2c0-4.8-3.8-8.7-8.6-8.7s-8.6,3.9-8.6,8.7v1.3c0,6-4.8,10.9-10.8,10.9s-10.8-4.9-10.8-10.9V27.2c0-6,4.8-10.9,10.8-10.9s10.8,4.9,10.8,10.9v1.3c0,4.8,3.8,8.7,8.6,8.7s8.6-3.9,8.6-8.7v-1.3c0-6,4.8-10.9,10.8-10.9s10.8,4.9,10.8,10.9v21.9h0c0-4.8,3.8-8.7,8.6-8.7s8.6,3.9,8.6,8.7h0v-20.8C94.8,12.7,82.2,0,66.8,0h0Z"/>
        <path class="st3" d="M86.2,57.6c4.8,0,8.6-3.9,8.6-8.7s-3.8-8.7-8.6-8.7-8.6,3.9-8.6,8.7,3.8,8.7,8.6,8.7Z"/>
      </g>
      <g>
        <path class="st2" d="M132.4,42.6c0,9.1,5.7,14,12.2,14s10.2-5,11.1-8.2l6.9,3c-1.9,5.7-7.6,12.4-18,12.4s-20.1-9.1-20.1-21.2,8.7-21.1,20-21.1,16.1,6.6,17.7,12.7l-7,3c-1-3.9-3.9-8.5-10.7-8.5s-12.1,4.6-12.1,13.9Z"/>
        <path class="st2" d="M171.7,62.5V22.7h7.5v5.3c2.5-4.4,7.5-6.5,12.1-6.5s9.8,2.4,11.9,7.5c3.1-5.7,8.3-7.5,13.3-7.5s13.8,4.7,13.8,15.2v25.8h-7.7v-25c0-5.2-2.6-9.1-8.4-9.1s-9.2,4.3-9.2,10v24.1h-7.8v-25c0-5.1-2.5-9.1-8.4-9.1s-9.3,4.1-9.3,10.1v24h-7.8Z"/>
        <path class="st2" d="M242.7,62.5V2.5h7.7v25.8c1.9-3.6,6.6-6.8,13.2-6.8,12.1,0,18.3,9.3,18.3,20.9s-6.7,21.2-18.6,21.2-10.4-2.6-12.9-6.9v5.8h-7.7ZM262.2,28.4c-6.9,0-11.9,5.4-11.9,14s5,14.2,11.9,14.2,11.8-5.6,11.8-14.2-4.6-14-11.8-14Z"/>
        <path class="st2" d="M295.6,2c3.1,0,5.6,2.5,5.6,5.6s-2.5,5.5-5.6,5.5-5.5-2.5-5.5-5.6,2.5-5.6,5.5-5.6h0ZM291.8,62.5V22.7h7.7v39.9h-7.7Z"/>
        <path class="st2" d="M350.2,42.6c0,12.2-8.5,21.2-20.4,21.2s-20.4-9-20.4-21.2,8.5-21.1,20.4-21.1,20.4,9,20.4,21.1ZM342.3,42.6c0-9.2-5.8-14.2-12.4-14.2s-12.4,5-12.4,14.2,5.8,14.2,12.4,14.2,12.4-5,12.4-14.2Z"/>
      </g>
    </g>
  </g>
  <g class="st0">
    <g class="st0">
      <text class="st1" transform="translate(342.5 22)"><tspan x="0" y="0">®</tspan></text>
    </g>
  </g>
</svg>