<svg xmlns="http://www.w3.org/2000/svg" viewBox="0 0 433.445 310.73">
  <title>EMBO_logo-primary_black-digital</title>
<desc>EMBO logo</desc>
<metadata><?xpacket begin="﻿" id="W5M0MpCehiHzreSzNTczkc9d"?>
<x:xmpmeta xmlns:x="adobe:ns:meta/" x:xmptk="Adobe XMP Core 7.1-c000 79.4d2f597, 2021/09/01-20:51:22        ">
   <rdf:RDF xmlns:rdf="http://www.w3.org/1999/02/22-rdf-syntax-ns#">
      <rdf:Description rdf:about=""
            xmlns:dc="http://purl.org/dc/elements/1.1/"
            xmlns:xmpRights="http://ns.adobe.com/xap/1.0/rights/"
            xmlns:xmp="http://ns.adobe.com/xap/1.0/"
            xmlns:xmpMM="http://ns.adobe.com/xap/1.0/mm/"
            xmlns:stEvt="http://ns.adobe.com/xap/1.0/sType/ResourceEvent#">
         <dc:creator>
            <rdf:Seq>
               <rdf:li>EMBO</rdf:li>
            </rdf:Seq>
         </dc:creator>
         <dc:description>
            <rdf:Alt>
               <rdf:li xml:lang="x-default">EMBO logo</rdf:li>
            </rdf:Alt>
         </dc:description>
         <dc:title>
            <rdf:Alt>
               <rdf:li xml:lang="x-default">EMBO_logo-primary_black-digital</rdf:li>
            </rdf:Alt>
         </dc:title>
         <xmpRights:Marked/>
         <xmp:MetadataDate>2022-02-22T11:33:43+01:00</xmp:MetadataDate>
         <xmpMM:InstanceID>xmp.iid:b0bacbfd-e99e-4a35-8710-90cb59a3c1ff</xmpMM:InstanceID>
         <xmpMM:DocumentID>xmp.did:096911f3-82cf-4cb1-adcc-b6eb7826cfde</xmpMM:DocumentID>
         <xmpMM:OriginalDocumentID>xmp.did:096911f3-82cf-4cb1-adcc-b6eb7826cfde</xmpMM:OriginalDocumentID>
         <xmpMM:History>
            <rdf:Seq>
               <rdf:li>
                  <rdf:Description>
                     <stEvt:action>saved</stEvt:action>
                     <stEvt:instanceID>xmp.iid:096911f3-82cf-4cb1-adcc-b6eb7826cfde</stEvt:instanceID>
                     <stEvt:when>2022-02-22T11:32:54+01:00</stEvt:when>
                     <stEvt:softwareAgent>Adobe Bridge 2022 (Macintosh)</stEvt:softwareAgent>
                     <stEvt:changed>/metadata</stEvt:changed>
                  </rdf:Description>
               </rdf:li>
               <rdf:li>
                  <rdf:Description>
                     <stEvt:action>saved</stEvt:action>
                     <stEvt:instanceID>xmp.iid:b0bacbfd-e99e-4a35-8710-90cb59a3c1ff</stEvt:instanceID>
                     <stEvt:when>2022-02-22T11:33:43+01:00</stEvt:when>
                     <stEvt:softwareAgent>Adobe Bridge 2022 (Macintosh)</stEvt:softwareAgent>
                     <stEvt:changed>/metadata</stEvt:changed>
                  </rdf:Description>
               </rdf:li>
            </rdf:Seq>
         </xmpMM:History>
      </rdf:Description>
   </rdf:RDF>
</x:xmpmeta>
                                                                                                    
                                                                                                    
                                                                                                    
                                                                                                    
                                                                                                    
                                                                                                    
                                                                                                    
                                                                                                    
                                                                                                    
                                                                                                    
                                                                                                    
                                                                                                    
                                                                                                    
                                                      
<?xpacket end="w"?></metadata>
<g id="bounding_box" data-name="bounding box">
    <rect width="433.445" height="310.73" style="fill: none"/>
  </g>
  <g id="logo">
    <g>
      <g>
        <path d="M95.6,198.659l6.8-5.219c-.315-.466-.633-.929-.937-1.4a61.808,61.808,0,0,1-4.706-8.814,60.169,60.169,0,0,1-3.284-9.412,64.852,64.852,0,0,1-2.053-19.728,63.693,63.693,0,0,1,13.556-36.552,63.846,63.846,0,0,1,70.658-21.259A63.7,63.7,0,0,1,204,115.463l9.111-6.993a72.322,72.322,0,0,0-13.4-12.527,76.394,76.394,0,0,0-9.831-6.064c-1.748-.812-3.449-1.729-5.253-2.414l-2.68-1.085-2.736-.937a75.116,75.116,0,0,0-45.44-.315,74.211,74.211,0,0,0-37.01,26.089,76.061,76.061,0,0,0-6.2,9.636,78.6,78.6,0,0,0-4.627,10.473,73.579,73.579,0,0,0,8.333,65.434C94.7,197.4,95.145,198.031,95.6,198.659Z" style="fill: #f5ac00"/>
        <path d="M199.071,207.17a70.656,70.656,0,0,1-8.42,5.9,66.536,66.536,0,0,1-58.789,4.343,61.158,61.158,0,0,1-8.994-4.539,64.584,64.584,0,0,1-8.2-5.821,70,70,0,0,1-6.743-6.507l-6.643,5.1a72.469,72.469,0,0,0,71.9,20.907,71.43,71.43,0,0,0,36.688-23.634l-3.335-2.859A74.342,74.342,0,0,1,199.071,207.17Z" style="fill: #222"/>
      </g>
      <path d="M144.037,174.416h30.52v9.6H133.443V129.51h40.735v9.606H144.037v12.618h26.715v9.606H144.037Zm146.037-5.7c0,9.3-7.268,15.307-18.516,15.307H246.283V129.51H270.8c11.009,0,18.121,5.591,18.121,14.241A12.965,12.965,0,0,1,282.14,155.6C287.407,157.857,290.074,162.264,290.074,168.714Zm-33.348-16.752h12.168c3.522,0,9.431-.869,9.431-6.689,0-4.02-3.106-6.233-8.744-6.233H256.726Zm23.355,15.763c0-3.27-1.085-6.613-9.132-6.613H256.726v13.379h14.908C277.475,174.491,280.081,172.405,280.081,167.725Zm71.6-11.034c0,15.826-12.063,27.762-28.059,27.762-15.914,0-27.914-11.871-27.914-27.613,0-15.827,12.064-27.763,28.062-27.763C339.681,129.077,351.68,140.948,351.68,156.691Zm-10.88.149c0-10.306-7.385-18.078-17.179-18.078-9.711,0-17.034,7.707-17.034,17.929,0,10.306,7.387,18.077,17.182,18.077C333.479,174.768,340.8,167.061,340.8,156.84Zm-130.615-2.661L194.31,129.51H183.387v54.511H193.83V147.384l16.29,24.288h.028l16.241-24.447v36.8h10.594V129.51H226.06Z" style="fill: #222"/>
    </g>
  </g>
</svg>
